# xmcd
#
# Track frame offsets:
#	150
#	15542
#	35002
#	52015
#	67510
#	86480
#	101522
#	118095
#	134365
#	149315
#	163032
#	176235
#	187950
#	204645
#
# Disc length: 2934 seconds
#
# Revision: 1
# Processed by: cddbd v1.5PL3 Copyright (c) Steve Scherf et al.
# Submitted via: audiograbber 1.82.02
#
DISCID=c10b740e
DTITLE=Happy Hitchcock - Happy Hour
DYEAR=2003
DGENRE=Country
TTITLE0=His Name Was Gene Vincent
TTITLE1=She's Really Out There
TTITLE2=Looking For The Sugar
TTITLE3=I'm Gonna Make You Love Me
TTITLE4=Fly Alone
TTITLE5=I Just Care About The Girls
TTITLE6=Modern Night
TTITLE7=She Did It
TTITLE8=Coffee Man
TTITLE9=I'm Your Shadow
TTITLE10=Surrounded By You
TTITLE11=High Functioning Woman
TTITLE12=Naked Truth
TTITLE13=Stop It Some More
EXTD=
EXTT0=
EXTT1=
EXTT2=
EXTT3=
EXTT4=
EXTT5=
EXTT6=
EXTT7=
EXTT8=
EXTT9=
EXTT10=
EXTT11=
EXTT12=
EXTT13=
PLAYORDER=
